<svg width="30" height="30" viewBox="0 0 30 30" fill="none" xmlns="http://www.w3.org/2000/svg">
<path d="M14.8991 1C7.79097 1 8.23479 4.09863 8.23479 4.09863L8.24268 7.30891H15.0259V8.27272H5.54851C5.54851 8.27272 1 7.75417 1 14.9637C1 22.1735 4.97005 21.9178 4.97005 21.9178H7.33936V18.5722C7.33936 18.5722 7.21163 14.5814 11.246 14.5814H17.9737C17.9737 14.5814 21.7536 14.6428 21.7536 10.9092V4.73599C21.7536 4.73599 22.3277 1 14.8991 1ZM11.1589 3.15885C11.3192 3.1587 11.4779 3.19033 11.626 3.25193C11.7742 3.31352 11.9087 3.40387 12.0221 3.51781C12.1354 3.63174 12.2253 3.76703 12.2866 3.91592C12.3478 4.06481 12.3793 4.22439 12.3792 4.38552C12.3793 4.54665 12.3478 4.70622 12.2866 4.85511C12.2253 5.00401 12.1354 5.13929 12.0221 5.25323C11.9087 5.36716 11.7742 5.45751 11.626 5.51911C11.4779 5.5807 11.3192 5.61233 11.1589 5.61218C10.9986 5.61233 10.8398 5.5807 10.6917 5.51911C10.5436 5.45751 10.409 5.36716 10.2957 5.25323C10.1823 5.13929 10.0925 5.00401 10.0312 4.85511C9.96991 4.70622 9.93845 4.54665 9.93859 4.38552C9.93845 4.22439 9.96991 4.06481 10.0312 3.91592C10.0925 3.76703 10.1823 3.63174 10.2957 3.51781C10.409 3.40387 10.5436 3.31352 10.6917 3.25193C10.8398 3.19033 10.9986 3.1587 11.1589 3.15885Z" fill="url(#paint0_linear_550_495)"/>
<path d="M15.101 29C22.2091 29 21.7653 25.9014 21.7653 25.9014L21.7574 22.6912H14.9741V21.7274H24.4515C24.4515 21.7274 29 22.2459 29 15.0362C29 7.82647 25.0299 8.08217 25.0299 8.08217H22.6606V11.4277C22.6606 11.4277 22.7884 15.4185 18.754 15.4185H12.0263C12.0263 15.4185 8.24642 15.3571 8.24642 19.0908V25.2641C8.24642 25.2641 7.67257 29 15.101 29ZM18.8412 26.8414C18.6809 26.8415 18.5222 26.8099 18.3741 26.7483C18.226 26.6867 18.0914 26.5963 17.978 26.4824C17.8647 26.3685 17.7748 26.2332 17.7135 26.0843C17.6523 25.9354 17.6208 25.7758 17.6209 25.6147C17.6208 25.4536 17.6522 25.294 17.7135 25.1451C17.7748 24.9962 17.8647 24.8609 17.978 24.7469C18.0913 24.633 18.2259 24.5426 18.3741 24.481C18.5222 24.4194 18.6809 24.3878 18.8412 24.3879C19.0015 24.3878 19.1603 24.4194 19.3084 24.481C19.4565 24.5426 19.5911 24.6329 19.7044 24.7469C19.8178 24.8608 19.9077 24.9961 19.9689 25.145C20.0302 25.2939 20.0617 25.4535 20.0615 25.6146C20.0617 25.7757 20.0302 25.9353 19.9689 26.0842C19.9077 26.2331 19.8178 26.3684 19.7044 26.4823C19.5911 26.5962 19.4565 26.6866 19.3084 26.7482C19.1603 26.8098 19.0015 26.8415 18.8412 26.8414Z" fill="url(#paint1_linear_550_495)"/>
<defs>
<linearGradient id="paint0_linear_550_495" x1="363.852" y1="338.092" x2="2230.89" y2="2190.63" gradientUnits="userSpaceOnUse">
<stop stop-color="#387EB8"/>
<stop offset="1" stop-color="#366994"/>
</linearGradient>
<linearGradient id="paint1_linear_550_495" x1="405.407" y1="438.572" x2="1902.85" y2="1846.8" gradientUnits="userSpaceOnUse">
<stop stop-color="#FFE052"/>
<stop offset="1" stop-color="#FFC331"/>
</linearGradient>
</defs>
</svg>
